<svg xmlns="http://www.w3.org/2000/svg" xmlns:svg="http://www.w3.org/2000/svg" id="svg4397" width="144.6" height="77.468" version="1.1" viewBox="0 0 135.562 72.626"><metadata id="metadata4402"/><g id="layer1" transform="translate(-132.21876,-107.47756)"><path id="path3072" d="m 138.12121,153.28631 c 8.5738,-26.94625 33.6013,-45.24625 61.8788,-45.24625 28.2775,0 53.305,18.3 61.87873,45.24625" style="fill:none;stroke:#000;stroke-width:1.125;stroke-linecap:butt;stroke-linejoin:bevel;stroke-miterlimit:10;stroke-dasharray:none;stroke-opacity:1"/><path id="path3208" d="m 143.75001,153.28756 c 0,3.10625 -2.5188,5.625 -5.625,5.625 -3.1063,0 -5.625,-2.51875 -5.625,-5.625 0,-3.10625 2.5187,-5.625 5.625,-5.625 3.1062,0 5.625,2.51875 5.625,5.625" style="fill:#000;fill-opacity:1;fill-rule:evenodd;stroke:none"/><path id="path3210" d="m 143.75001,153.28756 c 0,3.10625 -2.5188,5.625 -5.625,5.625 -3.1063,0 -5.625,-2.51875 -5.625,-5.625 0,-3.10625 2.5187,-5.625 5.625,-5.625 3.1062,0 5.625,2.51875 5.625,5.625 z" style="fill:none;stroke:#000;stroke-width:.5625;stroke-linecap:butt;stroke-linejoin:bevel;stroke-miterlimit:10;stroke-dasharray:none;stroke-opacity:1"/><path id="path3212" d="m 267.5,153.28756 c 0,3.10625 -2.51876,5.625 -5.625,5.625 -3.10625,0 -5.625,-2.51875 -5.625,-5.625 0,-3.10625 2.51875,-5.625 5.625,-5.625 3.10624,0 5.625,2.51875 5.625,5.625" style="fill:#000;fill-opacity:1;fill-rule:evenodd;stroke:none"/><path id="path3214" d="m 267.5,153.28756 c 0,3.10625 -2.51876,5.625 -5.625,5.625 -3.10625,0 -5.625,-2.51875 -5.625,-5.625 0,-3.10625 2.51875,-5.625 5.625,-5.625 3.10624,0 5.625,2.51875 5.625,5.625 z" style="fill:none;stroke:#000;stroke-width:.5625;stroke-linecap:butt;stroke-linejoin:bevel;stroke-miterlimit:10;stroke-dasharray:none;stroke-opacity:1"/><path id="path3304" d="m 138.12501,153.28756 123.74999,0" style="fill:none;stroke:#000;stroke-width:3.375;stroke-linecap:butt;stroke-linejoin:miter;stroke-miterlimit:10;stroke-dasharray:1.125,5.1;stroke-dashoffset:5.0999999;stroke-opacity:1"/><text id="text3384" x="177.5" y="136.413" style="font-size:15px"><tspan style="font-variant:normal;font-weight:400;font-size:15px;font-family:Helvetica;-inkscape-font-specification:Helvetica;writing-mode:lr-tb;fill:#000;fill-opacity:1;fill-rule:nonzero;stroke:none" id="tspan3386" x="177.5 185.84 194.18 197.51 202.505 210.845 214.175" y="136.413">hairpin</tspan></text><text id="text3388" x="138.125" y="175.788" style="font-size:15px"><tspan style="font-style:italic;font-variant:normal;font-size:20.00024986px;font-family:'Times New Roman';-inkscape-font-specification:Times-Italic;writing-mode:lr-tb;fill:#000;fill-opacity:1;fill-rule:nonzero;stroke:none" id="tspan3390" x="138.125 261.875" y="175.788">ij</tspan></text></g></svg>