<svg xmlns="http://www.w3.org/2000/svg" xmlns:svg="http://www.w3.org/2000/svg" id="svg5107" width="144.6" height="77.537" version="1.1" viewBox="0 0 135.563 72.691"><metadata id="metadata5112"/><g id="layer1" transform="translate(-217.93303,-64.588034)"><path id="path3070" d="m 223.83552,110.39678 c 8.57376,-26.946246 33.60125,-45.246246 61.87876,-45.246246 28.27749,0 53.305,18.3 61.87874,45.246246" style="fill:none;stroke:#000;stroke-width:1.125;stroke-linecap:butt;stroke-linejoin:bevel;stroke-miterlimit:10;stroke-dasharray:none;stroke-opacity:1"/><path id="path3084" d="m 257.58928,110.39803 c 1.01999,-14.781247 13.30874,-26.249996 28.125,-26.249996 14.81625,0 27.105,11.468749 28.125,26.249996" style="fill:#00d100;fill-opacity:1;fill-rule:evenodd;stroke:none"/><path id="path3086" d="m 257.58928,110.39803 c 1.01999,-14.781247 13.30874,-26.249996 28.125,-26.249996 14.81625,0 27.105,11.468749 28.125,26.249996" style="fill:#e69f00;fill-opacity:1;stroke:#000;stroke-width:.5625;stroke-linecap:butt;stroke-linejoin:bevel;stroke-miterlimit:10;stroke-dasharray:none;stroke-opacity:1"/><path id="path3120" d="m 229.46428,110.39803 c 0,3.10625 -2.51876,5.625 -5.625,5.625 -3.10625,0 -5.625,-2.51875 -5.625,-5.625 0,-3.10625 2.51875,-5.625 5.625,-5.625 3.10624,0 5.625,2.51875 5.625,5.625" style="fill:#000;fill-opacity:1;fill-rule:evenodd;stroke:none"/><path id="path3122" d="m 229.46428,110.39803 c 0,3.10625 -2.51876,5.625 -5.625,5.625 -3.10625,0 -5.625,-2.51875 -5.625,-5.625 0,-3.10625 2.51875,-5.625 5.625,-5.625 3.10624,0 5.625,2.51875 5.625,5.625 z" style="fill:none;stroke:#000;stroke-width:.5625;stroke-linecap:butt;stroke-linejoin:bevel;stroke-miterlimit:10;stroke-dasharray:none;stroke-opacity:1"/><path id="path3124" d="m 353.21428,110.39803 c 0,3.10625 -2.51876,5.625 -5.625,5.625 -3.10626,0 -5.625,-2.51875 -5.625,-5.625 0,-3.10625 2.51874,-5.625 5.625,-5.625 3.10624,0 5.625,2.51875 5.625,5.625" style="fill:#000;fill-opacity:1;fill-rule:evenodd;stroke:none"/><path id="path3126" d="m 353.21428,110.39803 c 0,3.10625 -2.51876,5.625 -5.625,5.625 -3.10626,0 -5.625,-2.51875 -5.625,-5.625 0,-3.10625 2.51874,-5.625 5.625,-5.625 3.10624,0 5.625,2.51875 5.625,5.625 z" style="fill:none;stroke:#000;stroke-width:.5625;stroke-linecap:butt;stroke-linejoin:bevel;stroke-miterlimit:10;stroke-dasharray:none;stroke-opacity:1"/><path id="path3128" d="m 263.21428,110.39803 c 0,3.10625 -2.51876,5.625 -5.625,5.625 -3.10625,0 -5.625,-2.51875 -5.625,-5.625 0,-3.10625 2.51875,-5.625 5.625,-5.625 3.10624,0 5.625,2.51875 5.625,5.625" style="fill:#000;fill-opacity:1;fill-rule:evenodd;stroke:none"/><path id="path3130" d="m 263.21428,110.39803 c 0,3.10625 -2.51876,5.625 -5.625,5.625 -3.10625,0 -5.625,-2.51875 -5.625,-5.625 0,-3.10625 2.51875,-5.625 5.625,-5.625 3.10624,0 5.625,2.51875 5.625,5.625 z" style="fill:none;stroke:#000;stroke-width:.5625;stroke-linecap:butt;stroke-linejoin:bevel;stroke-miterlimit:10;stroke-dasharray:none;stroke-opacity:1"/><path id="path3132" d="m 319.46428,110.39803 c 0,3.10625 -2.51876,5.625 -5.625,5.625 -3.10625,0 -5.625,-2.51875 -5.625,-5.625 0,-3.10625 2.51875,-5.625 5.625,-5.625 3.10624,0 5.625,2.51875 5.625,5.625" style="fill:#000;fill-opacity:1;fill-rule:evenodd;stroke:none"/><path id="path3134" d="m 319.46428,110.39803 c 0,3.10625 -2.51876,5.625 -5.625,5.625 -3.10625,0 -5.625,-2.51875 -5.625,-5.625 0,-3.10625 2.51875,-5.625 5.625,-5.625 3.10624,0 5.625,2.51875 5.625,5.625 z" style="fill:none;stroke:#000;stroke-width:.5625;stroke-linecap:butt;stroke-linejoin:bevel;stroke-miterlimit:10;stroke-dasharray:none;stroke-opacity:1"/><path id="path3294" d="m 257.58928,110.39803 56.25,0" style="fill:none;stroke:#000;stroke-width:1.125;stroke-linecap:butt;stroke-linejoin:miter;stroke-miterlimit:10;stroke-dasharray:none;stroke-opacity:1"/><path id="path3308" d="m 313.83928,110.39803 33.75,0" style="fill:none;stroke:#000;stroke-width:3.375;stroke-linecap:butt;stroke-linejoin:miter;stroke-miterlimit:10;stroke-dasharray:1.125,3.975;stroke-dashoffset:3.9749999;stroke-opacity:1"/><path id="path3310" d="m 223.83928,110.39803 33.75,0" style="fill:none;stroke:#000;stroke-width:3.375;stroke-linecap:butt;stroke-linejoin:miter;stroke-miterlimit:10;stroke-dasharray:1.125,3.975;stroke-dashoffset:3.9749999;stroke-opacity:1"/><text id="text3330" x="277.377" y="104.773" style="font-size:15px"><tspan style="font-style:italic;font-variant:normal;font-size:24.99975014px;font-family:'Times New Roman';-inkscape-font-specification:Times-Italic;writing-mode:lr-tb;fill:#000;fill-opacity:1;fill-rule:nonzero;stroke:none" id="tspan3332" x="277.377" y="104.773">C</tspan></text><text id="text3334" x="262.795" y="82.273" style="font-size:15px"><tspan style="font-variant:normal;font-weight:400;font-size:15px;font-family:Helvetica;-inkscape-font-specification:Helvetica;writing-mode:lr-tb;fill:#000;fill-opacity:1;fill-rule:nonzero;stroke:none" id="tspan3336" x="262.795 266.125 274.465 278.635 286.975 291.97 295.3 303.64" y="82.273">interior</tspan></text><text id="text3388-6" x="220.013" y="132.963" style="font-size:15px"><tspan style="font-style:italic;font-variant:normal;font-size:20.00024986px;font-family:'Times New Roman';-inkscape-font-specification:Times-Italic;writing-mode:lr-tb;fill:#000;fill-opacity:1;fill-rule:nonzero;stroke:none" id="tspan3390-6" x="220.013 343.763" y="132.963">ij</tspan></text><text id="text3388-3" x="308.372" y="132.963" style="font-size:15px"><tspan style="font-style:italic;font-variant:normal;font-size:20.00024986px;font-family:'Times New Roman';-inkscape-font-specification:Times-Italic;writing-mode:lr-tb;fill:#000;fill-opacity:1;fill-rule:nonzero;stroke:none" id="tspan3390-2" x="308.372" y="132.963">l</tspan></text><text id="text3388-3-1" x="251.91" y="132.991" style="font-size:15px"><tspan style="font-style:italic;font-variant:normal;font-size:20.00024986px;font-family:'Times New Roman';-inkscape-font-specification:Times-Italic;writing-mode:lr-tb;fill:#000;fill-opacity:1;fill-rule:nonzero;stroke:none" id="tspan3390-2-4" x="251.91" y="132.991">k</tspan></text></g></svg>