<svg xmlns="http://www.w3.org/2000/svg" xmlns:svg="http://www.w3.org/2000/svg" id="svg6493" width="144.6" height="77.567" version="1.1" viewBox="0 0 135.563 72.719"><metadata id="metadata6498"/><g id="layer1" transform="translate(-146.50447,-76.002506)"><path style="fill:#89a6b6;fill-opacity:1;fill-rule:evenodd;stroke:none" id="path3028" d="m 162.44537,121.52851 0.29752,-0.22586 0.59508,-0.45171 1.04139,-0.67757 1.4877,-1.12928 1.93401,-1.46807 2.38031,-1.69392 2.67788,-1.91978 2.8266,-1.91978 3.12419,-2.14565 3.12416,-2.03271 3.27295,-2.0327 3.42169,-1.91978 3.42171,-1.80686 3.57048,-1.80685 3.86801,-1.581 3.71925,-1.468063 3.86802,-1.129283 5.05817,-0.903427 4.01678,-0.112927 2.52909,0.564641 1.4877,1.129282 0.59506,1.35514 0.29754,1.468073 0.14876,1.580984 0.44631,1.35514 0.89263,1.24222 1.63646,0.79049 2.38032,0.33879 2.82662,-0.33879 2.5291,-1.01635 1.934,-1.58099 1.0414,-1.80686 0.4463,-2.032707 -0.14877,-2.032709 -0.29753,-2.145638 -0.14878,-2.032708 -0.14877,-1.919781 0.44631,-1.581003 1.04139,-1.129282 1.93401,-0.451713 2.52908,0.790497 1.93401,1.242217 1.93401,1.693925 1.78524,2.03271 1.78523,2.258564 1.78522,2.484424 1.78524,2.597351 1.4877,2.710273 1.63649,2.82321 1.48769,2.8232 1.4877,2.71029 1.33891,2.71028 1.19016,2.25856 1.04138,2.03271 0.74385,1.581 0.44631,1.01635 0.29754,0.56465 0.14878,0.33878"/><path style="fill:none;stroke:#000;stroke-width:1.125;stroke-linecap:butt;stroke-linejoin:bevel;stroke-miterlimit:10;stroke-dasharray:none;stroke-opacity:1" id="path3074" d="m 152.40696,121.81126 c 8.57375,-26.946254 33.60125,-45.246254 61.87876,-45.246254 28.2775,0 53.30499,18.3 61.87874,45.246254"/><path style="fill:#000;fill-opacity:1;fill-rule:evenodd;stroke:none" id="path3216" d="m 158.03572,121.81251 c 0,3.10625 -2.51876,5.625 -5.625,5.625 -3.10626,0 -5.625,-2.51875 -5.625,-5.625 0,-3.10625 2.51874,-5.625 5.625,-5.625 3.10624,0 5.625,2.51875 5.625,5.625"/><path style="fill:none;stroke:#000;stroke-width:.5625;stroke-linecap:butt;stroke-linejoin:bevel;stroke-miterlimit:10;stroke-dasharray:none;stroke-opacity:1" id="path3218" d="m 158.03572,121.81251 c 0,3.10625 -2.51876,5.625 -5.625,5.625 -3.10626,0 -5.625,-2.51875 -5.625,-5.625 0,-3.10625 2.51874,-5.625 5.625,-5.625 3.10624,0 5.625,2.51875 5.625,5.625 z"/><path style="fill:#000;fill-opacity:1;fill-rule:evenodd;stroke:none" id="path3220" d="m 281.78572,121.81251 c 0,3.10625 -2.51875,5.625 -5.625,5.625 -3.10626,0 -5.625,-2.51875 -5.625,-5.625 0,-3.10625 2.51874,-5.625 5.625,-5.625 3.10625,0 5.625,2.51875 5.625,5.625"/><path style="fill:none;stroke:#000;stroke-width:.5625;stroke-linecap:butt;stroke-linejoin:bevel;stroke-miterlimit:10;stroke-dasharray:none;stroke-opacity:1" id="path3222" d="m 281.78572,121.81251 c 0,3.10625 -2.51875,5.625 -5.625,5.625 -3.10626,0 -5.625,-2.51875 -5.625,-5.625 0,-3.10625 2.51874,-5.625 5.625,-5.625 3.10625,0 5.625,2.51875 5.625,5.625 z"/><path style="fill:#000;fill-opacity:1;fill-rule:evenodd;stroke:none" id="path3232" d="m 172.97772,121.81251 c 0,3.10625 -2.51875,5.625 -5.625,5.625 -3.10626,0 -5.625,-2.51875 -5.625,-5.625 0,-3.10625 2.51874,-5.625 5.625,-5.625 3.10625,0 5.625,2.51875 5.625,5.625"/><path style="fill:none;stroke:#000;stroke-width:.5625;stroke-linecap:butt;stroke-linejoin:bevel;stroke-miterlimit:10;stroke-dasharray:none;stroke-opacity:1" id="path3234" d="m 172.97772,121.81251 c 0,3.10625 -2.51875,5.625 -5.625,5.625 -3.10626,0 -5.625,-2.51875 -5.625,-5.625 0,-3.10625 2.51874,-5.625 5.625,-5.625 3.10625,0 5.625,2.51875 5.625,5.625 z"/><path style="fill:#000;fill-opacity:1;fill-rule:evenodd;stroke:none" id="path3236" d="m 267.31706,121.81251 c 0,3.10625 -2.51875,5.625 -5.625,5.625 -3.10626,0 -5.625,-2.51875 -5.625,-5.625 0,-3.10625 2.51874,-5.625 5.625,-5.625 3.10625,0 5.625,2.51875 5.625,5.625"/><path style="fill:none;stroke:#000;stroke-width:.5625;stroke-linecap:butt;stroke-linejoin:bevel;stroke-miterlimit:10;stroke-dasharray:none;stroke-opacity:1" id="path3238" d="m 267.31706,121.81251 c 0,3.10625 -2.51875,5.625 -5.625,5.625 -3.10626,0 -5.625,-2.51875 -5.625,-5.625 0,-3.10625 2.51874,-5.625 5.625,-5.625 3.10625,0 5.625,2.51875 5.625,5.625 z"/><path style="fill:none;stroke:#000;stroke-width:1.125;stroke-linecap:butt;stroke-linejoin:miter;stroke-miterlimit:10;stroke-dasharray:none;stroke-opacity:1" id="path3298" d="m 153.83346,121.71784 123.84192,0"/><text style="font-size:15px" id="text3388-3-1-9" x="146.553" y="143.663"><tspan id="tspan3390-2-4-1" x="146.553" y="143.663" style="font-style:italic;font-variant:normal;font-size:20.00024986px;font-family:'Times New Roman';-inkscape-font-specification:Times-Italic;writing-mode:lr-tb;fill:#000;fill-opacity:1;fill-rule:nonzero;stroke:none">i</tspan></text><text style="font-size:15px" id="text3388-3-1-0" x="161.951" y="144.405"><tspan id="tspan3390-2-4-9" x="161.951" y="144.405" style="font-style:italic;font-variant:normal;font-size:20.00024986px;font-family:'Times New Roman';-inkscape-font-specification:Times-Italic;writing-mode:lr-tb;fill:#000;fill-opacity:1;fill-rule:nonzero;stroke:none">k</tspan></text><text style="font-size:15px" id="text3388-3-1-2" x="257.358" y="144.405"><tspan id="tspan3390-2-4-5" x="257.358" y="144.405" style="font-style:italic;font-variant:normal;font-size:20.00024986px;font-family:'Times New Roman';-inkscape-font-specification:Times-Italic;writing-mode:lr-tb;fill:#000;fill-opacity:1;fill-rule:nonzero;stroke:none">l</tspan></text><text style="font-size:15px" id="text3388-3-1-20" x="271.295" y="144.405"><tspan id="tspan3390-2-4-8" x="271.295" y="144.405" style="font-style:italic;font-variant:normal;font-size:20.00024986px;font-family:'Times New Roman';-inkscape-font-specification:Times-Italic;writing-mode:lr-tb;fill:#000;fill-opacity:1;fill-rule:nonzero;stroke:none">j</tspan></text><text id="text7173" x="196.867" y="114.737" xml:space="preserve" style="font-style:normal;font-variant:normal;font-weight:400;font-stretch:normal;font-size:10px;line-height:125%;font-family:Arial;-inkscape-font-specification:Arial;text-align:start;letter-spacing:0;word-spacing:0;writing-mode:lr-tb;text-anchor:start;fill:#000;fill-opacity:1;stroke:none;stroke-width:1px;stroke-linecap:butt;stroke-linejoin:miter;stroke-opacity:1"><tspan id="tspan7175" x="196.867" y="114.737">2 branches</tspan></text><g id="g7203" transform="matrix(1.8043348,0,0,1.8043348,135.45157,6.2390456)"><g id="content" stroke-miterlimit="10.433" font-size-adjust="none" font-stretch="normal" font-style="normal" font-variant="normal" font-weight="normal" letter-spacing="normal" transform="matrix(0.10388485,0,0,-0.10388485,-18.179849,101.67188)" word-spacing="normal" xml:space="preserve" style="font-style:normal;font-variant:normal;font-weight:400;font-stretch:normal;letter-spacing:normal;word-spacing:normal;text-anchor:start;fill:none;fill-opacity:1;fill-rule:evenodd;stroke:#000;stroke-linecap:butt;stroke-linejoin:miter;stroke-miterlimit:10.43299961;stroke-dasharray:none;stroke-dashoffset:0;stroke-opacity:1"><path id="path7206" d="m 489.1,422.34 0.06,0.03 0.07,0.03 0.06,0.03 0.05,0.02 0.06,0.03 0.05,0.03 0.05,0.03 0.05,0.03 0.05,0.04 0.04,0.03 0.04,0.03 0.04,0.03 0.04,0.03 0.04,0.04 0.03,0.03 0.03,0.03 0.03,0.04 0.03,0.03 0.02,0.04 0.03,0.03 0.02,0.04 0.02,0.04 0.02,0.03 0.01,0.04 0.01,0.04 0.02,0.04 0.01,0.03 0,0.04 0.01,0.04 0,0.04 0.01,0.04 0,0.04 c 0,0.5 -0.21,0.8 -1,1.16 l -27.46,12.95 c -0.68,0.35 -0.89,0.35 -1,0.35 -0.59,0 -0.98,-0.46 -0.98,-1 0,-0.6 0.39,-0.85 0.94,-1.1 l 26.15,-12.31 -26.04,-12.3 c -1,-0.45 -1.05,-0.84 -1.05,-1.14 0,-0.56 0.44,-1 0.98,-1 0.16,0 0.25,0 0.91,0.35 z" style="fill:#000;stroke-width:0"/><path id="path7208" d="m 488.35,399.37 0.16,0 0.16,0 0.15,0.01 0.08,0 0.08,0.01 0.07,0 0.08,0.01 0.07,0.01 0.07,0.01 0.07,0.02 0.07,0.01 0.07,0.02 0.06,0.03 0.06,0.02 0.06,0.03 0.05,0.03 0.06,0.04 0.05,0.03 0.04,0.05 0.04,0.04 0.04,0.05 0.02,0.03 0.02,0.03 0.01,0.03 0.02,0.03 0.01,0.03 0.02,0.03 0.01,0.04 0.01,0.03 0.01,0.04 0,0.04 0.01,0.03 0.01,0.04 0,0.05 0.01,0.04 0,0.04 0,0.05 c 0,1 -1.05,1 -1.8,1 l -26.86,0 c -0.73,0 -1.78,0 -1.78,-1 0,-1 0.89,-1 1.73,-1 z" style="fill:#000;stroke-width:0"/></g></g><text style="font-style:normal;font-variant:normal;font-weight:400;font-stretch:normal;font-size:10px;line-height:125%;font-family:Arial;-inkscape-font-specification:Arial;text-align:start;letter-spacing:0;word-spacing:0;writing-mode:lr-tb;text-anchor:start;fill:#000;fill-opacity:1;stroke:none;stroke-width:1px;stroke-linecap:butt;stroke-linejoin:miter;stroke-opacity:1" id="text7238" x="191.092" y="89.366" xml:space="preserve"><tspan id="tspan7240" x="191.092" y="89.366">multi-loop</tspan></text></g></svg>