<svg xmlns="http://www.w3.org/2000/svg" xmlns:svg="http://www.w3.org/2000/svg" id="svg7299" width="332.799" height="62.354" version="1.1" viewBox="0 0 311.999 58.457"><metadata id="metadata7304"/><g id="layer1" transform="translate(407.78125,-293.28959)"><path id="path3160" d="m -396.25,324.55662 c 0,3.1065 -2.51855,5.625 -5.625,5.625 -3.10645,0 -5.625,-2.5185 -5.625,-5.625 0,-3.1065 2.51855,-5.625 5.625,-5.625 3.10645,0 5.625,2.5185 5.625,5.625" style="fill:#000;fill-opacity:1;fill-rule:evenodd;stroke:none"/><path id="path3162" d="m -396.25,324.55662 c 0,3.1065 -2.51855,5.625 -5.625,5.625 -3.10645,0 -5.625,-2.5185 -5.625,-5.625 0,-3.1065 2.51855,-5.625 5.625,-5.625 3.10645,0 5.625,2.5185 5.625,5.625 z" style="fill:none;stroke:#000;stroke-width:.5625;stroke-linecap:butt;stroke-linejoin:bevel;stroke-miterlimit:10;stroke-dasharray:none;stroke-opacity:1"/><path id="path3164" d="m -272.5,324.55662 c 0,3.1065 -2.51876,5.625 -5.625,5.625 -3.10625,0 -5.625,-2.5185 -5.625,-5.625 0,-3.1065 2.51875,-5.625 5.625,-5.625 3.10624,0 5.625,2.5185 5.625,5.625" style="fill:#000;fill-opacity:1;fill-rule:evenodd;stroke:none"/><path id="path3166" d="m -272.5,324.55662 c 0,3.1065 -2.51876,5.625 -5.625,5.625 -3.10625,0 -5.625,-2.5185 -5.625,-5.625 0,-3.1065 2.51875,-5.625 5.625,-5.625 3.10624,0 5.625,2.5185 5.625,5.625 z" style="fill:none;stroke:#000;stroke-width:.5625;stroke-linecap:butt;stroke-linejoin:bevel;stroke-miterlimit:10;stroke-dasharray:none;stroke-opacity:1"/><path id="path3286" d="m -401.875,324.55662 123.75,0" style="fill:none;stroke:#000;stroke-width:1.125;stroke-linecap:butt;stroke-linejoin:miter;stroke-miterlimit:10;stroke-dasharray:none;stroke-opacity:1"/><text id="text3352" x="-405.875" y="347.057" style="font-size:15px"><tspan style="font-style:italic;font-variant:normal;font-size:20.00024986px;font-family:'Times New Roman';-inkscape-font-specification:Times-Italic;writing-mode:lr-tb;fill:#000;fill-opacity:1;fill-rule:nonzero;stroke:none" id="tspan3354" x="-405.875 -282.125" y="347.057">ij</tspan></text><text id="text3356" x="-347.368" y="313.801" style="font-size:15px"><tspan style="font-style:italic;font-variant:normal;font-size:24.99975014px;font-family:'Times New Roman';-inkscape-font-specification:Times-Italic;writing-mode:lr-tb;fill:#000;fill-opacity:1;fill-rule:nonzero;stroke:none" id="tspan3358" x="-347.368" y="313.801">F</tspan></text><text style="font-style:normal;font-variant:normal;font-weight:400;font-stretch:normal;font-size:10px;line-height:125%;font-family:Arial;-inkscape-font-specification:Arial;text-align:start;letter-spacing:0;word-spacing:0;writing-mode:lr-tb;text-anchor:start;fill:#000;fill-opacity:1;stroke:none;stroke-width:1px;stroke-linecap:butt;stroke-linejoin:miter;stroke-opacity:1" id="text7873" x="-262.559" y="333.746" xml:space="preserve"><tspan id="tspan7875" x="-262.559" y="333.746" style="font-size:25px">=</tspan></text><path id="path3088" d="m -168.19561,324.68226 c -0.0781,-0.85929 -0.11717,-1.72179 -0.11717,-2.58475 0,-15.76699 12.78245,-28.54944 28.54944,-28.54944 15.76698,0 28.54943,12.78245 28.54943,28.54944 0,0.86296 -0.0391,1.72546 -0.11716,2.58475" style="fill:#e69f00;fill-opacity:1;fill-rule:evenodd;stroke:none"/><path id="path3090" d="m -168.19561,324.68226 c -0.0781,-0.85929 -0.11717,-1.72179 -0.11717,-2.58475 0,-15.76699 12.78245,-28.54944 28.54944,-28.54944 15.76698,0 28.54943,12.78245 28.54943,28.54944 0,0.86296 -0.0391,1.72546 -0.11716,2.58475" style="fill:none;stroke:#000;stroke-width:.51695031;stroke-linecap:butt;stroke-linejoin:bevel;stroke-miterlimit:10;stroke-dasharray:none;stroke-opacity:1"/><text id="text3330" x="-150.092" y="317.024" style="font-size:13.78534222px"><tspan style="font-style:italic;font-variant:normal;font-size:22.97533989px;font-family:'Times New Roman';-inkscape-font-specification:Times-Italic;writing-mode:lr-tb;fill:#000;fill-opacity:1;fill-rule:nonzero;stroke:none" id="tspan3332" x="-150.092" y="317.024">C</tspan></text><path id="path3196-8" d="m -228.97306,324.50241 c 0,3.1065 -2.51876,5.625 -5.625,5.625 -3.10625,0 -5.625,-2.5185 -5.625,-5.625 0,-3.1065 2.51875,-5.625 5.625,-5.625 3.10624,0 5.625,2.5185 5.625,5.625" style="fill:#000;fill-opacity:1;fill-rule:evenodd;stroke:none"/><path id="path3198-3" d="m -228.97306,324.50241 c 0,3.1065 -2.51876,5.625 -5.625,5.625 -3.10625,0 -5.625,-2.5185 -5.625,-5.625 0,-3.1065 2.51875,-5.625 5.625,-5.625 3.10624,0 5.625,2.5185 5.625,5.625 z" style="fill:none;stroke:#000;stroke-width:.5625;stroke-linecap:butt;stroke-linejoin:bevel;stroke-miterlimit:10;stroke-dasharray:none;stroke-opacity:1"/><path id="path3252-9" d="m -177.72306,324.50241 c 0,3.1065 -2.51876,5.625 -5.625,5.625 -3.10625,0 -5.625,-2.5185 -5.625,-5.625 0,-3.1065 2.51875,-5.625 5.625,-5.625 3.10624,0 5.625,2.5185 5.625,5.625" style="fill:#000;fill-opacity:1;fill-rule:evenodd;stroke:none"/><path id="path3254-9" d="m -177.72306,324.50241 c 0,3.1065 -2.51876,5.625 -5.625,5.625 -3.10625,0 -5.625,-2.5185 -5.625,-5.625 0,-3.1065 2.51875,-5.625 5.625,-5.625 3.10624,0 5.625,2.5185 5.625,5.625 z" style="fill:none;stroke:#000;stroke-width:.5625;stroke-linecap:butt;stroke-linejoin:bevel;stroke-miterlimit:10;stroke-dasharray:none;stroke-opacity:1"/><path id="path3302" d="m -234.59806,324.50241 56.25,0" style="fill:none;stroke:#000;stroke-width:1.125;stroke-linecap:butt;stroke-linejoin:miter;stroke-miterlimit:10;stroke-dasharray:none;stroke-opacity:1"/><path id="path3200-3" d="m -158.97306,324.50241 c 0,3.1065 -2.51876,5.625 -5.625,5.625 -3.10625,0 -5.625,-2.5185 -5.625,-5.625 0,-3.1065 2.51875,-5.625 5.625,-5.625 3.10624,0 5.625,2.5185 5.625,5.625" style="fill:#000;fill-opacity:1;fill-rule:evenodd;stroke:none"/><path id="path3202-0" d="m -158.97306,324.50241 c 0,3.1065 -2.51876,5.625 -5.625,5.625 -3.10625,0 -5.625,-2.5185 -5.625,-5.625 0,-3.1065 2.51875,-5.625 5.625,-5.625 3.10624,0 5.625,2.5185 5.625,5.625 z" style="fill:none;stroke:#000;stroke-width:.5625;stroke-linecap:butt;stroke-linejoin:bevel;stroke-miterlimit:10;stroke-dasharray:none;stroke-opacity:1"/><path id="path3204-7" d="m -108.88377,324.50241 c 0,3.1065 -2.51876,5.625 -5.625,5.625 -3.10626,0 -5.625,-2.5185 -5.625,-5.625 0,-3.1065 2.51874,-5.625 5.625,-5.625 3.10624,0 5.625,2.5185 5.625,5.625" style="fill:#000;fill-opacity:1;fill-rule:evenodd;stroke:none"/><path id="path3284-6" d="m -167.09806,324.50241 52.94643,0" style="fill:none;stroke:#000;stroke-width:1.125;stroke-linecap:butt;stroke-linejoin:miter;stroke-miterlimit:10;stroke-dasharray:none;stroke-opacity:1"/><path id="path3206-2" d="m -108.88377,324.50241 c 0,3.1065 -2.51876,5.625 -5.625,5.625 -3.10626,0 -5.625,-2.5185 -5.625,-5.625 0,-3.1065 2.51874,-5.625 5.625,-5.625 3.10624,0 5.625,2.5185 5.625,5.625 z" style="fill:none;stroke:#000;stroke-width:.5625;stroke-linecap:butt;stroke-linejoin:bevel;stroke-miterlimit:10;stroke-dasharray:none;stroke-opacity:1"/><text id="text3352-2-3" x="-189.641" y="346.94" style="font-size:15px"><tspan style="font-style:italic;font-variant:normal;font-size:20.00024986px;font-family:'Times New Roman';-inkscape-font-specification:Times-Italic;writing-mode:lr-tb;fill:#000;fill-opacity:1;fill-rule:nonzero;stroke:none" id="tspan3354-0-5" x="-189.641" y="346.94">k</tspan></text><text id="text3352-2-0-6" x="-170.422" y="346.888" style="font-size:15px"><tspan style="font-style:italic;font-variant:normal;font-size:20.00024986px;font-family:'Times New Roman';-inkscape-font-specification:Times-Italic;writing-mode:lr-tb;fill:#000;fill-opacity:1;fill-rule:nonzero;stroke:none" id="tspan3354-0-9-4" x="-170.422" y="346.888">l</tspan></text><text id="text3356-4-9" x="-215.453" y="313.581" style="font-size:15px"><tspan style="font-style:italic;font-variant:normal;font-size:24.99975014px;font-family:'Times New Roman';-inkscape-font-specification:Times-Italic;writing-mode:lr-tb;fill:#000;fill-opacity:1;fill-rule:nonzero;stroke:none" id="tspan3358-0-4" x="-215.453" y="313.581">F</tspan></text><path id="path3204-7-9" d="m -96.063381,324.7158 c 0,3.1065 -2.51876,5.625 -5.624999,5.625 -3.10626,0 -5.625,-2.5185 -5.625,-5.625 0,-3.1065 2.51874,-5.625 5.625,-5.625 3.106239,0 5.624999,2.5185 5.624999,5.625" style="fill:#000;fill-opacity:1;fill-rule:evenodd;stroke:none"/><path id="path3206-2-3" d="m -96.063381,324.7158 c 0,3.1065 -2.51876,5.625 -5.624999,5.625 -3.10626,0 -5.625,-2.5185 -5.625,-5.625 0,-3.1065 2.51874,-5.625 5.625,-5.625 3.106239,0 5.624999,2.5185 5.624999,5.625 z" style="fill:none;stroke:#000;stroke-width:.5625;stroke-linecap:butt;stroke-linejoin:bevel;stroke-miterlimit:10;stroke-dasharray:none;stroke-opacity:1"/><text id="text3352-8-9-9" x="-104.96" y="347.43" style="font-size:15px"><tspan style="font-style:italic;font-variant:normal;font-size:20.00024986px;font-family:'Times New Roman';-inkscape-font-specification:Times-Italic;writing-mode:lr-tb;fill:#000;fill-opacity:1;fill-rule:nonzero;stroke:none" id="tspan3354-1-7-9" x="-104.96" y="347.43">j</tspan></text><text id="text3352-8-9-9-8" x="-128.136" y="347.126" style="font-size:15px"><tspan style="font-style:italic;font-variant:normal;font-size:20.00024986px;font-family:'Times New Roman';-inkscape-font-specification:Times-Italic;writing-mode:lr-tb;fill:#000;fill-opacity:1;fill-rule:nonzero;stroke:none" id="tspan3354-1-7-9-9" x="-128.136" y="347.126">j-1</tspan></text><text id="text3352-8-9-9-1" x="-238.927" y="347.425" style="font-size:15px"><tspan style="font-style:italic;font-variant:normal;font-size:20.00024986px;font-family:'Times New Roman';-inkscape-font-specification:Times-Italic;writing-mode:lr-tb;fill:#000;fill-opacity:1;fill-rule:nonzero;stroke:none" id="tspan3354-1-7-9-6" x="-238.927" y="347.425">i</tspan></text></g></svg>