<svg xmlns="http://www.w3.org/2000/svg" xmlns:svg="http://www.w3.org/2000/svg" id="svg7299" width="319.79" height="83.457" version="1.1" viewBox="0 0 299.804 78.241"><metadata id="metadata7304"/><g id="layer1" transform="translate(407.78125,-273.35134)"><path id="path3036" d="m -401.875,324.55662 0.0752,-0.14987 0.1499,-0.30038 0.2251,-0.52487 0.4497,-0.82463 0.5249,-1.125 0.75,-1.5 0.9004,-1.72512 1.0498,-2.10013 1.2002,-2.25 1.27492,-2.39987 1.42475,-2.55038 1.5,-2.62475 1.5,-2.7 1.57525,-2.625 1.64988,-2.625 1.64987,-2.55 1.72513,-2.475 1.79975,-2.325 1.875,-2.25 1.875,-2.1 2.0255,-1.95 2.02487,-1.725 2.17475,-1.5 2.17538,-1.275 2.17475,-0.825 2.70025,-0.525 2.39987,0.225 2.02488,0.675 1.5,1.2 1.04975,1.5 0.60012,1.725 0.30038,1.95 0.0746,2.025 -0.14987,2.175 -0.22513,2.175 -0.14987,2.175 -0.0752,2.175 0.0752,2.1 0.375,2.025 0.75,1.875 1.20025,1.65 1.7245,1.425 2.32525,0.975 2.77487,0.6 3.22513,0 2.62499,-0.375 2.70026,-0.675 2.54974,-0.975 2.39988,-1.125 2.17538,-1.275 2.02487,-1.35 1.79975,-1.5 1.57525,-1.425 1.42475,-1.575 1.27487,-1.5 1.20025,-1.5 1.125,-1.575 1.04975,-1.575 1.05038,-1.5 1.04975,-1.575 1.125,-1.575 1.20025,-1.575 1.35012,-1.5 1.5,-1.5 1.64988,-1.5 1.79975,-1.5 1.95025,-1.35 2.10012,-1.2 2.0995,-1.125 2.17538,-0.825 2.02487,-0.6 2.32525,-0.3 1.79975,0.15 1.35013,0.45 0.89987,0.6 0.45025,0.75 0.0746,0.825 -0.14988,0.9 -0.45025,0.9 -0.52487,0.9 -0.60013,0.9 -0.67475,0.975 -0.60012,1.05 -0.52488,1.2 -0.375,1.275 -0.14987,1.425 0,1.65 0.29975,1.95 0.60013,2.1 0.82524,2.325 1.04976,2.475 1.20024,2.55 1.19964,2.475 1.20025,2.325 1.19962,2.25 1.20025,2.025 1.125,1.95025 1.20025,1.875 1.125,1.79975 1.04975,1.72513 1.125,1.57462 0.975,1.57525 0.975,1.35013 0.9,1.27487 0.75,1.04975 0.6,0.9005 0.44999,0.67475 0.375,0.375 0.15001,0.29975 0.075,0.0752" style="fill:#56b4e9;fill-opacity:1;fill-rule:evenodd;stroke:none"/><path id="path3038" d="m -401.875,324.55662 0.0752,-0.14987 0.1499,-0.30038 0.2251,-0.52487 0.4497,-0.82463 0.5249,-1.125 0.75,-1.5 0.9004,-1.72512 1.0498,-2.10013 1.2002,-2.25 1.27492,-2.39987 1.42475,-2.55038 1.5,-2.62475 1.5,-2.7 1.57525,-2.625 1.64988,-2.625 1.64987,-2.55 1.72513,-2.475 1.79975,-2.325 1.875,-2.25 1.875,-2.1 2.0255,-1.95 2.02487,-1.725 2.17475,-1.5 2.17538,-1.275 2.17475,-0.825 2.70025,-0.525 2.39987,0.225 2.02488,0.675 1.5,1.2 1.04975,1.5 0.60012,1.725 0.30038,1.95 0.0746,2.025 -0.14987,2.175 -0.22513,2.175 -0.14987,2.175 -0.0752,2.175 0.0752,2.1 0.375,2.025 0.75,1.875 1.20025,1.65 1.7245,1.425 2.32525,0.975 2.77487,0.6 3.22513,0 2.62499,-0.375 2.70026,-0.675 2.54974,-0.975 2.39988,-1.125 2.17538,-1.275 2.02487,-1.35 1.79975,-1.5 1.57525,-1.425 1.42475,-1.575 1.27487,-1.5 1.20025,-1.5 1.125,-1.575 1.04975,-1.575 1.05038,-1.5 1.04975,-1.575 1.125,-1.575 1.20025,-1.575 1.35012,-1.5 1.5,-1.5 1.64988,-1.5 1.79975,-1.5 1.95025,-1.35 2.10012,-1.2 2.0995,-1.125 2.17538,-0.825 2.02487,-0.6 2.32525,-0.3 1.79975,0.15 1.35013,0.45 0.89987,0.6 0.45025,0.75 0.0746,0.825 -0.14988,0.9 -0.45025,0.9 -0.52487,0.9 -0.60013,0.9 -0.67475,0.975 -0.60012,1.05 -0.52488,1.2 -0.375,1.275 -0.14987,1.425 0,1.65 0.29975,1.95 0.60013,2.1 0.82524,2.325 1.04976,2.475 1.20024,2.55 1.19964,2.475 1.20025,2.325 1.19962,2.25 1.20025,2.025 1.125,1.95025 1.20025,1.875 1.125,1.79975 1.04975,1.72513 1.125,1.57462 0.975,1.57525 0.975,1.35013 0.9,1.27487 0.75,1.04975 0.6,0.9005 0.44999,0.67475 0.375,0.375 0.15001,0.29975 0.075,0.0752" style="fill:none;stroke:#000;stroke-width:.5625;stroke-linecap:butt;stroke-linejoin:bevel;stroke-miterlimit:10;stroke-dasharray:none;stroke-opacity:1"/><path id="path3160" d="m -396.25,324.55662 c 0,3.1065 -2.51855,5.625 -5.625,5.625 -3.10645,0 -5.625,-2.5185 -5.625,-5.625 0,-3.1065 2.51855,-5.625 5.625,-5.625 3.10645,0 5.625,2.5185 5.625,5.625" style="fill:#000;fill-opacity:1;fill-rule:evenodd;stroke:none"/><path id="path3162" d="m -396.25,324.55662 c 0,3.1065 -2.51855,5.625 -5.625,5.625 -3.10645,0 -5.625,-2.5185 -5.625,-5.625 0,-3.1065 2.51855,-5.625 5.625,-5.625 3.10645,0 5.625,2.5185 5.625,5.625 z" style="fill:none;stroke:#000;stroke-width:.5625;stroke-linecap:butt;stroke-linejoin:bevel;stroke-miterlimit:10;stroke-dasharray:none;stroke-opacity:1"/><path id="path3164" d="m -272.5,324.55662 c 0,3.1065 -2.51876,5.625 -5.625,5.625 -3.10625,0 -5.625,-2.5185 -5.625,-5.625 0,-3.1065 2.51875,-5.625 5.625,-5.625 3.10624,0 5.625,2.5185 5.625,5.625" style="fill:#000;fill-opacity:1;fill-rule:evenodd;stroke:none"/><path id="path3166" d="m -272.5,324.55662 c 0,3.1065 -2.51876,5.625 -5.625,5.625 -3.10625,0 -5.625,-2.5185 -5.625,-5.625 0,-3.1065 2.51875,-5.625 5.625,-5.625 3.10624,0 5.625,2.5185 5.625,5.625 z" style="fill:none;stroke:#000;stroke-width:.5625;stroke-linecap:butt;stroke-linejoin:bevel;stroke-miterlimit:10;stroke-dasharray:none;stroke-opacity:1"/><path id="path3286" d="m -401.875,324.55662 123.75,0" style="fill:none;stroke:#000;stroke-width:1.125;stroke-linecap:butt;stroke-linejoin:miter;stroke-miterlimit:10;stroke-dasharray:none;stroke-opacity:1"/><text id="text3352" x="-401.875" y="347.057" style="font-size:15px"><tspan style="font-style:italic;font-variant:normal;font-size:20.00024986px;font-family:'Times New Roman';-inkscape-font-specification:Times-Italic;writing-mode:lr-tb;fill:#000;fill-opacity:1;fill-rule:nonzero;stroke:none" id="tspan3354" x="-401.875 -278.125" y="347.057">ij</tspan></text><text id="text3356" x="-351.25" y="290.807" style="font-size:15px"><tspan style="font-style:italic;font-variant:normal;font-size:24.99975014px;font-family:'Times New Roman';-inkscape-font-specification:Times-Italic;writing-mode:lr-tb;fill:#000;fill-opacity:1;fill-rule:nonzero;stroke:none" id="tspan3358" x="-351.25" y="290.807">M</tspan></text><text style="font-style:normal;font-variant:normal;font-weight:400;font-stretch:normal;font-size:10px;line-height:125%;font-family:Arial;-inkscape-font-specification:Arial;text-align:start;letter-spacing:0;word-spacing:0;writing-mode:lr-tb;text-anchor:start;fill:#000;fill-opacity:1;stroke:none;stroke-width:1px;stroke-linecap:butt;stroke-linejoin:miter;stroke-opacity:1" id="text7873" x="-262.857" y="311.648" xml:space="preserve"><tspan id="tspan7875" x="-262.857" y="311.648" style="font-size:25px">=</tspan></text><path id="path3088-8" d="m -235.48686,325.06322 c -0.0761,-0.83702 -0.11414,-1.67717 -0.11414,-2.51777 0,-15.35838 12.45119,-27.80957 27.80957,-27.80957 15.35838,0 27.80957,12.45119 27.80957,27.80957 0,0.8406 -0.038,1.68075 -0.11413,2.51777" style="fill:#e69f00;fill-opacity:1;fill-rule:evenodd;stroke:none"/><path id="path3090-3" d="m -235.48686,325.06322 c -0.0761,-0.83702 -0.11414,-1.67717 -0.11414,-2.51777 0,-15.35838 12.45119,-27.80957 27.80957,-27.80957 15.35838,0 27.80957,12.45119 27.80957,27.80957 0,0.8406 -0.038,1.68075 -0.11413,2.51777" style="fill:none;stroke:#000;stroke-width:.50355339;stroke-linecap:butt;stroke-linejoin:bevel;stroke-miterlimit:10;stroke-dasharray:none;stroke-opacity:1"/><text id="text3330-9" x="-219.238" y="316.129" style="font-size:15px"><tspan style="font-style:italic;font-variant:normal;font-size:24.99975014px;font-family:'Times New Roman';-inkscape-font-specification:Times-Italic;writing-mode:lr-tb;fill:#000;fill-opacity:1;fill-rule:nonzero;stroke:none" id="tspan3332-9" x="-219.238" y="316.129">C</tspan></text><path id="path3196" d="m -228.34821,324.66005 c 0,3.1065 -2.51876,5.625 -5.625,5.625 -3.10625,0 -5.625,-2.5185 -5.625,-5.625 0,-3.1065 2.51875,-5.625 5.625,-5.625 3.10624,0 5.625,2.5185 5.625,5.625" style="fill:#000;fill-opacity:1;fill-rule:evenodd;stroke:none"/><path id="path3198" d="m -228.34821,324.66005 c 0,3.1065 -2.51876,5.625 -5.625,5.625 -3.10625,0 -5.625,-2.5185 -5.625,-5.625 0,-3.1065 2.51875,-5.625 5.625,-5.625 3.10624,0 5.625,2.5185 5.625,5.625 z" style="fill:none;stroke:#000;stroke-width:.5625;stroke-linecap:butt;stroke-linejoin:bevel;stroke-miterlimit:10;stroke-dasharray:none;stroke-opacity:1"/><path id="path3088-8-5" d="m -169.39986,324.76396 c -0.0761,-0.83702 -0.11414,-1.67717 -0.11414,-2.51777 0,-15.35838 12.45119,-27.80957 27.80957,-27.80957 15.35838,0 27.80957,12.45119 27.80957,27.80957 0,0.8406 -0.038,1.68075 -0.11413,2.51777" style="fill:#e69f00;fill-opacity:1;fill-rule:evenodd;stroke:none"/><path id="path3090-3-3" d="m -169.39986,324.76396 c -0.0761,-0.83702 -0.11414,-1.67717 -0.11414,-2.51777 0,-15.35838 12.45119,-27.80957 27.80957,-27.80957 15.35838,0 27.80957,12.45119 27.80957,27.80957 0,0.8406 -0.038,1.68075 -0.11413,2.51777" style="fill:none;stroke:#000;stroke-width:.50355339;stroke-linecap:butt;stroke-linejoin:bevel;stroke-miterlimit:10;stroke-dasharray:none;stroke-opacity:1"/><path id="path3280" d="m -218.16639,324.88435 86.92731,0" style="fill:none;stroke:#000;stroke-width:1.58049667;stroke-linecap:butt;stroke-linejoin:miter;stroke-miterlimit:10;stroke-dasharray:none;stroke-opacity:1"/><path id="path3252" d="m -175.9037,324.66005 c 0,3.1065 -2.51876,5.625 -5.625,5.625 -3.10625,0 -5.625,-2.5185 -5.625,-5.625 0,-3.1065 2.51875,-5.625 5.625,-5.625 3.10624,0 5.625,2.5185 5.625,5.625" style="fill:#000;fill-opacity:1;fill-rule:evenodd;stroke:none"/><path id="path3254" d="m -175.9037,324.66005 c 0,3.1065 -2.51876,5.625 -5.625,5.625 -3.10625,0 -5.625,-2.5185 -5.625,-5.625 0,-3.1065 2.51875,-5.625 5.625,-5.625 3.10624,0 5.625,2.5185 5.625,5.625 z" style="fill:none;stroke:#000;stroke-width:.5625;stroke-linecap:butt;stroke-linejoin:bevel;stroke-miterlimit:10;stroke-dasharray:none;stroke-opacity:1"/><path id="path3200" d="m -163.7235,324.66005 c 0,3.1065 -2.51876,5.625 -5.625,5.625 -3.10625,0 -5.625,-2.5185 -5.625,-5.625 0,-3.1065 2.51875,-5.625 5.625,-5.625 3.10624,0 5.625,2.5185 5.625,5.625" style="fill:#000;fill-opacity:1;fill-rule:evenodd;stroke:none"/><path id="path3202" d="m -163.7235,324.66005 c 0,3.1065 -2.51876,5.625 -5.625,5.625 -3.10625,0 -5.625,-2.5185 -5.625,-5.625 0,-3.1065 2.51875,-5.625 5.625,-5.625 3.10624,0 5.625,2.5185 5.625,5.625 z" style="fill:none;stroke:#000;stroke-width:.5625;stroke-linecap:butt;stroke-linejoin:bevel;stroke-miterlimit:10;stroke-dasharray:none;stroke-opacity:1"/><path id="path3204" d="m -108.25892,324.66005 c 0,3.1065 -2.51876,5.625 -5.625,5.625 -3.10626,0 -5.625,-2.5185 -5.625,-5.625 0,-3.1065 2.51874,-5.625 5.625,-5.625 3.10624,0 5.625,2.5185 5.625,5.625" style="fill:#000;fill-opacity:1;fill-rule:evenodd;stroke:none"/><path id="path3284" d="m -233.3657,324.66005 119.83892,0" style="fill:none;stroke:#000;stroke-width:1.125;stroke-linecap:butt;stroke-linejoin:miter;stroke-miterlimit:10;stroke-dasharray:none;stroke-opacity:1"/><path id="path3206" d="m -108.25892,324.66005 c 0,3.1065 -2.51876,5.625 -5.625,5.625 -3.10626,0 -5.625,-2.5185 -5.625,-5.625 0,-3.1065 2.51874,-5.625 5.625,-5.625 3.10624,0 5.625,2.5185 5.625,5.625 z" style="fill:none;stroke:#000;stroke-width:.5625;stroke-linecap:butt;stroke-linejoin:bevel;stroke-miterlimit:10;stroke-dasharray:none;stroke-opacity:1"/><text id="text3352-8" x="-239.909" y="347.276" style="font-size:15px"><tspan style="font-style:italic;font-variant:normal;font-size:20.00024986px;font-family:'Times New Roman';-inkscape-font-specification:Times-Italic;writing-mode:lr-tb;fill:#000;fill-opacity:1;fill-rule:nonzero;stroke:none" id="tspan3354-1" x="-239.909 -116.159" y="347.276">ij</tspan></text><text id="text3352-2" x="-187.225" y="347.097" style="font-size:15px"><tspan style="font-style:italic;font-variant:normal;font-size:20.00024986px;font-family:'Times New Roman';-inkscape-font-specification:Times-Italic;writing-mode:lr-tb;fill:#000;fill-opacity:1;fill-rule:nonzero;stroke:none" id="tspan3354-0" x="-187.225" y="347.097">k</tspan></text><text id="text3352-2-0" x="-172.783" y="347.046" style="font-size:15px"><tspan style="font-style:italic;font-variant:normal;font-size:20.00024986px;font-family:'Times New Roman';-inkscape-font-specification:Times-Italic;writing-mode:lr-tb;fill:#000;fill-opacity:1;fill-rule:nonzero;stroke:none" id="tspan3354-0-9" x="-172.783" y="347.046">l</tspan></text><text id="text3330" x="-152.238" y="315.97" style="font-size:15px"><tspan style="font-style:italic;font-variant:normal;font-size:24.99975014px;font-family:'Times New Roman';-inkscape-font-specification:Times-Italic;writing-mode:lr-tb;fill:#000;fill-opacity:1;fill-rule:nonzero;stroke:none" id="tspan3332" x="-152.238" y="315.97">C</tspan></text></g></svg>