<svg xmlns="http://www.w3.org/2000/svg" xmlns:svg="http://www.w3.org/2000/svg" id="svg2" width="677.785" height="312.067" version="1.1" viewBox="885 1760 8472.879 3905.303"><metadata id="metadata596"/><path id="path6" d="m 5455.4236,5320.8189 a 625,625 0 0 1 1200,0" style="fill:#009e73;fill-opacity:1;stroke:#000;stroke-width:7;stroke-linecap:butt"/><path id="path8" d="m 8530.4236,3220.8189 a 225,225 0 1 1 450,0" style="fill:#009e73;fill-opacity:1;stroke:#000;stroke-width:7;stroke-linecap:butt"/><path id="path10" d="m 955.42359,5320.8189 a 625,625 0 0 1 1200.00001,0" style="fill:#009e73;fill-opacity:1;stroke:#000;stroke-width:7;stroke-linecap:butt"/><polyline id="polyline18" points="5550 4275 5551 4272 5552 4266 5554 4255 5557 4238 5561 4216 5567 4190 5573 4159 5580 4127 5588 4092 5596 4057 5604 4023 5614 3989 5624 3957 5634 3927 5645 3899 5658 3874 5671 3853 5685 3836 5700 3825 5716 3821 5731 3825 5743 3836 5752 3852 5758 3872 5761 3894 5763 3918 5763 3943 5762 3969 5762 3994 5763 4020 5765 4044 5770 4067 5778 4088 5790 4105 5806 4118 5826 4125 5850 4125 5873 4118 5896 4106 5917 4089 5936 4068 5953 4046 5968 4022 5981 3997 5992 3971 6003 3945 6013 3919 6022 3893 6032 3867 6043 3843 6055 3819 6068 3797 6083 3778 6099 3762 6116 3751 6134 3747 6150 3750 6162 3760 6172 3777 6179 3798 6184 3823 6187 3851 6189 3882 6189 3915 6187 3949 6185 3985 6182 4022 6178 4059 6174 4096 6170 4132 6165 4165 6161 4195 6158 4220 6155 4241 6153 4256 6151 4267 6150 4272 6150 4275" transform="matrix(1.2397169,0,0,0.9988084,-1431.7534,-9.6768879)" style="fill:#56b4e9;fill-opacity:1;stroke:#000;stroke-width:7;stroke-linecap:butt;stroke-linejoin:bevel"/><path id="path36" d="m 3205.4236,5320.8189 a 865,865 0 0 1 1650,0" style="fill:#e69f00;fill-opacity:1;stroke:#000;stroke-width:7;stroke-linecap:butt"/><circle id="circle38" cx="3205.424" cy="5320.819" r="75" style="fill:#000;stroke:#000;stroke-width:7"/><circle id="circle40" cx="4855.423" cy="5320.819" r="75" style="fill:#000;stroke:#000;stroke-width:7"/><polyline id="polyline42" points="3225 5325 4875 5325" transform="translate(-19.576413,-4.1812038)" style="fill:none;stroke:#000;stroke-width:15;stroke-linecap:butt;stroke-linejoin:miter"/><text style="font-style:italic;font-weight:700;font-size:240px;font-family:Times;text-anchor:middle;fill:#000;stroke-width:.025in" id="text44" x="4040.698" y="5194.45" font-size="240" font-style="italic" font-weight="bold" xml:space="preserve"><tspan style="font-style:italic;font-variant:normal;font-weight:700;font-stretch:normal;font-size:233.60021973px;font-family:serif;-inkscape-font-specification:'serif Bold Italic'" id="tspan8022">C</tspan></text><text style="font-style:normal;font-variant:normal;font-weight:700;font-stretch:normal;font-size:200.22875977px;font-family:serif;-inkscape-font-specification:'serif Bold';text-anchor:start;fill:#000;stroke-width:.025in" id="text46" x="3205.424" y="5620.819" font-size="192" font-style="italic" font-weight="bold" xml:space="preserve">i</text><text style="font-style:normal;font-variant:normal;font-weight:700;font-stretch:normal;font-size:200.22875977px;font-family:serif;-inkscape-font-specification:'serif Bold';text-anchor:start;fill:#000;stroke-width:.025in" id="text48" x="4855.423" y="5620.819" font-size="192" font-style="italic" font-weight="bold" xml:space="preserve">j</text><circle id="circle134" cx="5455.423" cy="5320.819" r="75" style="fill:#000;stroke:#000;stroke-width:7"/><circle id="circle136" cx="7180.423" cy="5320.819" r="75" style="fill:#000;stroke:#000;stroke-width:7"/><circle id="circle138" cx="7030.423" cy="5320.819" r="75" style="fill:#000;stroke:#000;stroke-width:7"/><polyline id="polyline140" points="5475 5325 7125 5325" transform="translate(-19.576413,-4.1812038)" style="fill:none;stroke:#000;stroke-width:15;stroke-linecap:butt;stroke-linejoin:miter"/><text style="font-style:normal;font-variant:normal;font-weight:700;font-stretch:normal;font-size:200.22875977px;font-family:serif;-inkscape-font-specification:'serif Bold';text-anchor:start;fill:#000;stroke-width:.025in" id="text142" x="5455.423" y="5620.819" font-size="192" font-style="italic" font-weight="bold" xml:space="preserve">i</text><text style="font-style:normal;font-variant:normal;font-weight:700;font-stretch:normal;font-size:200.22875977px;font-family:serif;-inkscape-font-specification:'serif Bold';text-anchor:start;fill:#000;stroke-width:.025in" id="text144" x="6805.423" y="5620.819" font-size="192" font-style="italic" font-weight="bold" xml:space="preserve">j-1</text><text style="font-style:normal;font-variant:normal;font-weight:700;font-stretch:normal;font-size:200.22875977px;font-family:serif;-inkscape-font-specification:'serif Bold';text-anchor:start;fill:#000;stroke-width:.025in" id="text146" x="7180.423" y="5620.819" font-size="192" font-style="italic" font-weight="bold" xml:space="preserve">j</text><path id="path150" d="m 5455.4236,3220.8189 a 865,865 0 0 1 1650,0" style="fill:none;stroke:#000;stroke-width:15;stroke-linecap:butt"/><path id="path152" d="m 3280.4236,3220.8189 a 865,865 0 0 1 1650,0" style="fill:none;stroke:#000;stroke-width:15;stroke-linecap:butt"/><polyline id="polyline18-9" points="5550 4275 5551 4272 5552 4266 5554 4255 5557 4238 5561 4216 5567 4190 5573 4159 5580 4127 5588 4092 5596 4057 5604 4023 5614 3989 5624 3957 5634 3927 5645 3899 5658 3874 5671 3853 5685 3836 5700 3825 5716 3821 5731 3825 5743 3836 5752 3852 5758 3872 5761 3894 5763 3918 5763 3943 5762 3969 5762 3994 5763 4020 5765 4044 5770 4067 5778 4088 5790 4105 5806 4118 5826 4125 5850 4125 5873 4118 5896 4106 5917 4089 5936 4068 5953 4046 5968 4022 5981 3997 5992 3971 6003 3945 6013 3919 6022 3893 6032 3867 6043 3843 6055 3819 6068 3797 6083 3778 6099 3762 6116 3751 6134 3747 6150 3750 6162 3760 6172 3777 6179 3798 6184 3823 6187 3851 6189 3882 6189 3915 6187 3949 6185 3985 6182 4022 6178 4059 6174 4096 6170 4132 6165 4165 6161 4195 6158 4220 6155 4241 6153 4256 6151 4267 6150 4272 6150 4275" transform="matrix(1.049071,0,0,0.75998787,1936.6559,-27.432604)" style="fill:#56b4e9;fill-opacity:1;stroke:#000;stroke-width:7;stroke-linecap:butt;stroke-linejoin:bevel"/><path id="path154" d="m 7630.4236,3220.8189 a 865,865 0 0 1 1650,0" style="fill:none;stroke:#000;stroke-width:15;stroke-linecap:butt"/><path id="path156" d="m 955.42359,3220.8189 a 865,865 0 0 1 1650.00001,0" style="fill:#e69f00;fill-opacity:1;stroke:#000;stroke-width:7;stroke-linecap:butt"/><path id="path158" d="m 6505.4236,2170.8189 a 542,542 0 0 0 -1050,0" style="fill:#e69f00;fill-opacity:1;stroke:#000;stroke-width:7;stroke-linecap:butt"/><path id="path160" d="m 4105.4236,4270.8189 a 414,414 0 1 1 825,0" style="fill:#e69f00;fill-opacity:1;stroke:#000;stroke-width:7;stroke-linecap:butt"/><path id="path162" d="m 5905.4236,3220.8189 a 375,375 0 1 1 750,0" style="fill:#e69f00;fill-opacity:1;stroke:#000;stroke-width:7;stroke-linecap:butt"/><path id="path164" d="m 6355.4236,4270.8189 a 414,414 0 1 1 825,0" style="fill:#e69f00;fill-opacity:1;stroke:#000;stroke-width:7;stroke-linecap:butt"/><circle id="circle170" cx="3355.424" cy="2170.819" r="75" style="fill:#000;stroke:#000;stroke-width:7"/><circle id="circle172" cx="5455.423" cy="2170.819" r="75" style="fill:#000;stroke:#000;stroke-width:7"/><circle id="circle174" cx="6505.423" cy="2170.819" r="75" style="fill:#000;stroke:#000;stroke-width:7"/><circle id="circle176" cx="955.424" cy="3220.819" r="75" style="fill:#000;stroke:#000;stroke-width:7"/><circle id="circle178" cx="2605.424" cy="3220.819" r="75" style="fill:#000;stroke:#000;stroke-width:7"/><circle id="circle180" cx="5455.423" cy="3220.819" r="75" style="fill:#000;stroke:#000;stroke-width:7"/><circle id="circle182" cx="7105.423" cy="3220.819" r="75" style="fill:#000;stroke:#000;stroke-width:7"/><circle id="circle184" cx="5905.423" cy="3220.819" r="75" style="fill:#000;stroke:#000;stroke-width:7"/><circle id="circle186" cx="6655.423" cy="3220.819" r="75" style="fill:#000;stroke:#000;stroke-width:7"/><circle id="circle188" cx="955.424" cy="2170.819" r="75" style="fill:#000;stroke:#000;stroke-width:7"/><circle id="circle190" cx="2605.424" cy="2170.819" r="75" style="fill:#000;stroke:#000;stroke-width:7"/><circle id="circle192" cx="3505.424" cy="2170.819" r="75" style="fill:#000;stroke:#000;stroke-width:7"/><circle id="circle194" cx="5005.423" cy="2170.819" r="75" style="fill:#000;stroke:#000;stroke-width:7"/><circle id="circle196" cx="6655.423" cy="2170.819" r="75" style="fill:#000;stroke:#000;stroke-width:7"/><circle id="circle198" cx="7105.423" cy="2170.819" r="75" style="fill:#000;stroke:#000;stroke-width:7"/><polyline id="polyline18-0" points="5550 4275 5551 4272 5552 4266 5554 4255 5557 4238 5561 4216 5567 4190 5573 4159 5580 4127 5588 4092 5596 4057 5604 4023 5614 3989 5624 3957 5634 3927 5645 3899 5658 3874 5671 3853 5685 3836 5700 3825 5716 3821 5731 3825 5743 3836 5752 3852 5758 3872 5761 3894 5763 3918 5763 3943 5762 3969 5762 3994 5763 4020 5765 4044 5770 4067 5778 4088 5790 4105 5806 4118 5826 4125 5850 4125 5873 4118 5896 4106 5917 4089 5936 4068 5953 4046 5968 4022 5981 3997 5992 3971 6003 3945 6013 3919 6022 3893 6032 3867 6043 3843 6055 3819 6068 3797 6083 3778 6099 3762 6116 3751 6134 3747 6150 3750 6162 3760 6172 3777 6179 3798 6184 3823 6187 3851 6189 3882 6189 3915 6187 3949 6185 3985 6182 4022 6178 4059 6174 4096 6170 4132 6165 4165 6161 4195 6158 4220 6155 4241 6153 4256 6151 4267 6150 4272 6150 4275" transform="matrix(2.7274061,0,0,0.99317515,-14166.094,31.856163)" style="fill:#56b4e9;fill-opacity:1;stroke:#000;stroke-width:7;stroke-linecap:butt;stroke-linejoin:bevel"/><circle id="circle200" cx="955.424" cy="4270.819" r="75" style="fill:#000;stroke:#000;stroke-width:7"/><circle id="circle202" cx="2605.424" cy="4270.819" r="75" style="fill:#000;stroke:#000;stroke-width:7"/><circle id="circle204" cx="955.424" cy="5320.819" r="75" style="fill:#000;stroke:#000;stroke-width:7"/><circle id="circle206" cx="2605.424" cy="5320.819" r="75" style="fill:#000;stroke:#000;stroke-width:7"/><circle id="circle208" cx="5455.423" cy="4270.819" r="75" style="fill:#000;stroke:#000;stroke-width:7"/><circle id="circle210" cx="6355.423" cy="4270.819" r="75" style="fill:#000;stroke:#000;stroke-width:7"/><circle id="circle212" cx="7180.423" cy="4270.819" r="75" style="fill:#000;stroke:#000;stroke-width:7"/><circle id="circle214" cx="3280.424" cy="3220.819" r="75" style="fill:#000;stroke:#000;stroke-width:7"/><circle id="circle216" cx="4930.423" cy="3220.819" r="75" style="fill:#000;stroke:#000;stroke-width:7"/><circle id="circle218" cx="7630.423" cy="3220.819" r="75" style="fill:#000;stroke:#000;stroke-width:7"/><circle id="circle220" cx="9280.424" cy="3220.819" r="75" style="fill:#000;stroke:#000;stroke-width:7"/><circle id="circle222" cx="8530.424" cy="3220.819" r="75" style="fill:#000;stroke:#000;stroke-width:7"/><circle id="circle224" cx="7780.423" cy="3220.819" r="75" style="fill:#000;stroke:#000;stroke-width:7"/><circle id="circle226" cx="9130.424" cy="3220.819" r="75" style="fill:#000;stroke:#000;stroke-width:7"/><polyline id="polyline18-5" points="5550 4275 5551 4272 5552 4266 5554 4255 5557 4238 5561 4216 5567 4190 5573 4159 5580 4127 5588 4092 5596 4057 5604 4023 5614 3989 5624 3957 5634 3927 5645 3899 5658 3874 5671 3853 5685 3836 5700 3825 5716 3821 5731 3825 5743 3836 5752 3852 5758 3872 5761 3894 5763 3918 5763 3943 5762 3969 5762 3994 5763 4020 5765 4044 5770 4067 5778 4088 5790 4105 5806 4118 5826 4125 5850 4125 5873 4118 5896 4106 5917 4089 5936 4068 5953 4046 5968 4022 5981 3997 5992 3971 6003 3945 6013 3919 6022 3893 6032 3867 6043 3843 6055 3819 6068 3797 6083 3778 6099 3762 6116 3751 6134 3747 6150 3750 6162 3760 6172 3777 6179 3798 6184 3823 6187 3851 6189 3882 6189 3915 6187 3949 6185 3985 6182 4022 6178 4059 6174 4096 6170 4132 6165 4165 6161 4195 6158 4220 6155 4241 6153 4256 6151 4267 6150 4272 6150 4275" transform="matrix(2.4713447,0,0,0.99400479,-6087.8825,22.379904)" style="fill:#56b4e9;fill-opacity:1;stroke:#000;stroke-width:7;stroke-linecap:butt;stroke-linejoin:bevel"/><circle id="circle228" cx="7630.423" cy="4270.819" r="75" style="fill:#000;stroke:#000;stroke-width:7"/><circle id="circle230" cx="9280.424" cy="4270.819" r="75" style="fill:#000;stroke:#000;stroke-width:7"/><circle id="circle232" cx="9130.424" cy="4270.819" r="75" style="fill:#000;stroke:#000;stroke-width:7"/><circle id="circle234" cx="6205.423" cy="4270.819" r="75" style="fill:#000;stroke:#000;stroke-width:7"/><circle id="circle244" cx="4105.423" cy="4270.819" r="75" style="fill:#000;stroke:#000;stroke-width:7"/><circle id="circle246" cx="4930.423" cy="4270.819" r="75" style="fill:#000;stroke:#000;stroke-width:7"/><circle id="circle248" cx="8380.424" cy="3220.819" r="75" style="fill:#000;stroke:#000;stroke-width:7"/><polyline id="polyline286" points="6675 2175 7125 2175" transform="translate(-19.576413,-4.1812038)" style="fill:none;stroke:#000;stroke-width:15;stroke-linecap:butt;stroke-linejoin:miter"/><polyline id="polyline288" points="3525 2175 5025 2175" transform="translate(-19.576413,-4.1812038)" style="fill:none;stroke:#000;stroke-width:15;stroke-linecap:butt;stroke-linejoin:miter"/><polyline id="polyline292" points="5475 2175 6525 2175" transform="translate(-19.576413,-4.1812038)" style="fill:none;stroke:#000;stroke-width:15;stroke-linecap:butt;stroke-linejoin:miter"/><polyline id="polyline294" points="975 3225 2625 3225" transform="translate(-19.576413,-4.1812038)" style="fill:none;stroke:#000;stroke-width:15;stroke-linecap:butt;stroke-linejoin:miter"/><polyline id="polyline296" points="5925 3225 6675 3225" transform="translate(-19.576413,-4.1812038)" style="fill:none;stroke:#000;stroke-width:15;stroke-linecap:butt;stroke-linejoin:miter"/><polyline id="polyline298" points="4125 4275 4950 4275" transform="translate(-19.576413,-4.1812038)" style="fill:none;stroke:#000;stroke-width:15;stroke-linecap:butt;stroke-linejoin:miter"/><polyline id="polyline300" points="6375 4275 7200 4275" transform="translate(-19.576413,-4.1812038)" style="fill:none;stroke:#000;stroke-width:15;stroke-linecap:butt;stroke-linejoin:miter"/><polyline id="polyline302" points="975 2175 2625 2175" transform="translate(-19.576413,-4.1812038)" style="fill:none;stroke:#000;stroke-width:15;stroke-linecap:butt;stroke-linejoin:miter"/><polyline id="polyline304" points="975 4275 2625 4275" transform="translate(-19.576413,-4.1812038)" style="fill:none;stroke:#000;stroke-width:15;stroke-linecap:butt;stroke-linejoin:miter"/><polyline id="polyline306" points="975 5325 2625 5325" transform="translate(-19.576413,-4.1812038)" style="fill:none;stroke:#000;stroke-width:15;stroke-linecap:butt;stroke-linejoin:miter"/><polyline id="polyline308" points="5475 4275 6225 4275" transform="translate(-19.576413,-4.1812038)" style="fill:none;stroke:#000;stroke-width:15;stroke-linecap:butt;stroke-linejoin:miter"/><polyline id="polyline310" points="7650 4275 9150 4275" transform="translate(-19.576413,-4.1812038)" style="fill:none;stroke:#000;stroke-width:15;stroke-linecap:butt;stroke-linejoin:miter"/><polyline id="polyline312" points="7650 3225 8400 3225" transform="translate(-19.576413,-4.1812038)" style="fill:none;stroke:#000;stroke-width:15;stroke-linecap:butt;stroke-linejoin:miter"/><polyline id="polyline314" points="8550 3225 9300 3225" transform="translate(-19.576413,-4.1812038)" style="fill:none;stroke:#000;stroke-width:15;stroke-linecap:butt;stroke-linejoin:miter"/><text style="font-style:italic;font-weight:700;font-size:240px;font-family:Times;text-anchor:start;fill:#000;stroke-width:.025in" id="text376" x="2830.424" y="2245.819" font-size="240" font-style="italic" font-weight="bold" xml:space="preserve">=</text><text style="font-style:italic;font-weight:700;font-size:240px;font-family:Times;text-anchor:start;fill:#000;stroke-width:.025in" id="text378" x="5155.423" y="2245.819" font-size="240" font-style="italic" font-weight="bold" xml:space="preserve">|</text><text style="font-style:italic;font-weight:700;font-size:240px;font-family:Times;text-anchor:start;fill:#000;stroke-width:.025in" id="text380" x="2830.424" y="3145.819" font-size="240" font-style="italic" font-weight="bold" xml:space="preserve">=</text><text style="font-style:italic;font-weight:700;font-size:240px;font-family:Times;text-anchor:start;fill:#000;stroke-width:.025in" id="text382" x="5155.423" y="3295.819" font-size="240" font-style="italic" font-weight="bold" xml:space="preserve">|</text><text style="font-style:normal;font-variant:normal;font-weight:700;font-stretch:normal;font-size:200.22875977px;font-family:serif;-inkscape-font-specification:'serif Bold';text-anchor:start;fill:#000;stroke-width:.025in" id="text388" x="934.876" y="2468.523" font-size="192" font-style="italic" font-weight="bold" xml:space="preserve">i</text><text style="font-style:normal;font-variant:normal;font-weight:700;font-stretch:normal;font-size:200.22875977px;font-family:serif;-inkscape-font-specification:'serif Bold';text-anchor:start;fill:#000;stroke-width:.025in" id="text390" x="2605.424" y="2468.523" font-size="192" font-style="italic" font-weight="bold" xml:space="preserve">j</text><text style="font-style:normal;font-variant:normal;font-weight:700;font-stretch:normal;font-size:200.22875977px;font-family:serif;-inkscape-font-specification:'serif Bold';text-anchor:start;fill:#000;stroke-width:.025in" id="text392" x="3474.602" y="2468.523" font-size="192" font-style="italic" font-weight="bold" xml:space="preserve">i+1</text><text style="font-style:normal;font-variant:normal;font-weight:700;font-stretch:normal;font-size:200.22875977px;font-family:serif;-inkscape-font-specification:'serif Bold';text-anchor:start;fill:#000;stroke-width:.025in" id="text394" x="4974.602" y="2468.523" font-size="192" font-style="italic" font-weight="bold" xml:space="preserve">j</text><text style="font-style:normal;font-variant:normal;font-weight:700;font-stretch:normal;font-size:200.22875977px;font-family:serif;-inkscape-font-specification:'serif Bold';text-anchor:start;fill:#000;stroke-width:.025in" id="text396" x="5414.328" y="2468.523" font-size="192" font-style="italic" font-weight="bold" xml:space="preserve">i</text><text style="font-style:italic;font-weight:700;font-size:192px;font-family:Times;text-anchor:start;fill:#000;stroke-width:.025in" id="text402" x="927.776" y="3536.999" font-size="192" font-style="italic" font-weight="bold" xml:space="preserve">i</text><text style="font-style:italic;font-weight:700;font-size:192px;font-family:Times;text-anchor:start;fill:#000;stroke-width:.025in" id="text404" x="2595.15" y="3536.999" font-size="192" font-style="italic" font-weight="bold" xml:space="preserve">j</text><text style="font-style:italic;font-weight:700;font-size:192px;font-family:Times;text-anchor:start;fill:#000;stroke-width:.025in" id="text406" x="5414.328" y="3536.999" font-size="192" font-style="italic" font-weight="bold" xml:space="preserve">i</text><text style="font-style:italic;font-weight:700;font-size:192px;font-family:Times;text-anchor:start;fill:#000;stroke-width:.025in" id="text408" x="6614.328" y="3536.999" font-size="192" font-style="italic" font-weight="bold" xml:space="preserve">l</text><text style="font-style:italic;font-weight:700;font-size:192px;font-family:Times;text-anchor:start;fill:#000;stroke-width:.025in" id="text410" x="7084.876" y="3536.999" font-size="192" font-style="italic" font-weight="bold" xml:space="preserve">j</text><text style="font-style:normal;font-variant:normal;font-weight:700;font-stretch:normal;font-size:200.22875977px;font-family:serif;-inkscape-font-specification:'serif Bold';text-anchor:start;fill:#000;stroke-width:.025in" id="text412" x="6424.257" y="2468.523" font-size="192" font-style="italic" font-weight="bold" xml:space="preserve">k</text><text style="font-style:normal;font-variant:normal;font-weight:700;font-stretch:normal;font-size:200.22875977px;font-family:serif;-inkscape-font-specification:'serif Bold';text-anchor:start;fill:#000;stroke-width:.025in" id="text414" x="6600.971" y="2468.523" font-size="192" font-style="italic" font-weight="bold" xml:space="preserve">k+1</text><text style="font-style:normal;font-variant:normal;font-weight:700;font-stretch:normal;font-size:200.22875977px;font-family:serif;-inkscape-font-specification:'serif Bold';text-anchor:start;fill:#000;stroke-width:.025in" id="text416" x="7095.149" y="2468.523" font-size="192" font-style="italic" font-weight="bold" xml:space="preserve">j</text><text style="font-style:italic;font-weight:700;font-size:240px;font-family:Times;text-anchor:start;fill:#000;stroke-width:.025in" id="text418" x="2830.424" y="4045.819" font-size="240" font-style="italic" font-weight="bold" xml:space="preserve">=</text><text style="font-style:normal;font-variant:normal;font-weight:700;font-stretch:normal;font-size:200.22875977px;font-family:serif;-inkscape-font-specification:'serif Bold';text-anchor:start;fill:#000;stroke-width:.025in" id="text424" x="927.776" y="4645.819" font-size="192" font-style="italic" font-weight="bold" xml:space="preserve">i</text><text style="font-style:normal;font-variant:normal;font-weight:700;font-stretch:normal;font-size:200.22875977px;font-family:serif;-inkscape-font-specification:'serif Bold';text-anchor:start;fill:#000;stroke-width:.025in" id="text426" x="2605.917" y="4645.819" font-size="192" font-style="italic" font-weight="bold" xml:space="preserve">j</text><text style="font-style:normal;font-variant:normal;font-weight:700;font-stretch:normal;font-size:233.60021973px;font-family:serif;-inkscape-font-specification:'serif Bold';text-anchor:start;fill:#000;stroke-width:.025in" id="text428" x="1698.828" y="3977.352" font-size="240" font-style="italic" font-weight="bold" xml:space="preserve">M</text><text style="font-style:normal;font-variant:normal;font-weight:700;font-stretch:normal;font-size:200.22875977px;font-family:serif;-inkscape-font-specification:'serif Bold';text-anchor:start;fill:#000;stroke-width:.025in" id="text430" x="927.776" y="5639.106" font-size="192" font-style="italic" font-weight="bold" xml:space="preserve">i</text><text style="font-style:normal;font-variant:normal;font-weight:700;font-stretch:normal;font-size:200.22875977px;font-family:serif;-inkscape-font-specification:'serif Bold';text-anchor:start;fill:#000;stroke-width:.025in" id="text432" x="2514.3" y="5825.631" font-size="192" font-style="italic" font-weight="bold" transform="scale(1.0364382,0.96484288)" xml:space="preserve">j</text><text style="font-style:normal;font-variant:normal;font-weight:700;font-stretch:normal;font-size:200.22875977px;font-family:serif;-inkscape-font-specification:'serif Bold';text-anchor:start;fill:#000;stroke-width:.025in" id="text434" x="5404.571" y="4645.819" font-size="192" font-style="italic" font-weight="bold" xml:space="preserve">i</text><text style="font-style:normal;font-variant:normal;font-weight:700;font-stretch:normal;font-size:200.22875977px;font-family:serif;-inkscape-font-specification:'serif Bold';text-anchor:start;fill:#000;stroke-width:.025in" id="text436" x="7129.571" y="4645.819" font-size="192" font-style="italic" font-weight="bold" xml:space="preserve">j</text><text style="font-style:normal;font-variant:normal;font-weight:700;font-stretch:normal;font-size:200.22875977px;font-family:serif;-inkscape-font-specification:'serif Bold';text-anchor:start;fill:#000;stroke-width:.025in" id="text438" x="6108.818" y="4645.819" font-size="192" font-style="italic" font-weight="bold" xml:space="preserve">u</text><text style="font-style:normal;font-variant:normal;font-weight:700;font-stretch:normal;font-size:200.22875977px;font-family:serif;-inkscape-font-specification:'serif Bold';text-anchor:start;fill:#000;stroke-width:.025in" id="text440" x="6268.067" y="4645.819" font-size="192" font-style="italic" font-weight="bold" xml:space="preserve">u+1</text><text style="font-style:normal;font-variant:normal;font-weight:700;font-stretch:normal;font-size:233.60021973px;font-family:serif;-inkscape-font-specification:'serif Bold';text-anchor:start;fill:#000;stroke-width:.025in" id="text442" x="5724.602" y="3977.352" font-size="240" font-style="italic" font-weight="bold" xml:space="preserve">M</text><text style="font-style:normal;font-variant:normal;font-weight:700;font-stretch:normal;font-size:233.60021973px;font-family:Times;-inkscape-font-specification:'Times Bold';text-anchor:middle;fill:#000;stroke-width:.025in" id="text444" x="6761.245" y="4185.545" font-size="240" font-style="italic" font-weight="bold" xml:space="preserve"><tspan style="font-style:normal;font-variant:normal;font-weight:700;font-stretch:normal;font-family:serif;-inkscape-font-specification:'serif Bold'" id="tspan8018">C</tspan></text><text style="font-style:italic;font-weight:700;font-size:240px;font-family:Times;text-anchor:start;fill:#000;stroke-width:.025in" id="text446" x="5155.423" y="4345.819" font-size="240" font-style="italic" font-weight="bold" xml:space="preserve">|</text><text style="font-style:italic;font-weight:700;font-size:240px;font-family:Times;text-anchor:start;fill:#000;stroke-width:.025in" id="text448" x="7405.423" y="4345.819" font-size="240" font-style="italic" font-weight="bold" xml:space="preserve">|</text><text style="font-style:italic;font-weight:700;font-size:192px;font-family:Times;text-anchor:start;fill:#000;stroke-width:.025in" id="text452" x="3229.054" y="3536.999" font-size="192" font-style="italic" font-weight="bold" xml:space="preserve">i</text><text style="font-style:italic;font-weight:700;font-size:192px;font-family:Times;text-anchor:start;fill:#000;stroke-width:.025in" id="text454" x="4889.328" y="3536.999" font-size="192" font-style="italic" font-weight="bold" xml:space="preserve">j</text><text style="font-style:italic;font-weight:700;font-size:192px;font-family:Times;text-anchor:start;fill:#000;stroke-width:.025in" id="text458" x="8263.272" y="3536.999" font-size="192" font-style="italic" font-weight="bold" xml:space="preserve">u</text><text style="font-style:italic;font-weight:700;font-size:192px;font-family:Times;text-anchor:start;fill:#000;stroke-width:.025in" id="text460" x="7715.697" y="3536.999" font-size="192" font-style="italic" font-weight="bold" xml:space="preserve">i+1</text><text style="font-style:italic;font-weight:700;font-size:192px;font-family:Times;text-anchor:start;fill:#000;stroke-width:.025in" id="text462" x="8470.879" y="3536.999" font-size="192" font-style="italic" font-weight="bold" xml:space="preserve">u+1</text><text style="font-style:italic;font-weight:700;font-size:192px;font-family:Times;text-anchor:start;fill:#000;stroke-width:.025in" id="text464" x="7572.888" y="3536.999" font-size="192" font-style="italic" font-weight="bold" xml:space="preserve">i</text><text style="font-style:italic;font-weight:700;font-size:192px;font-family:Times;text-anchor:start;fill:#000;stroke-width:.025in" id="text466" x="8947.576" y="3536.999" font-size="192" font-style="italic" font-weight="bold" xml:space="preserve">j-1</text><text style="font-style:italic;font-weight:700;font-size:192px;font-family:Times;text-anchor:start;fill:#000;stroke-width:.025in" id="text468" x="9276.39" y="3536.999" font-size="192" font-style="italic" font-weight="bold" xml:space="preserve">j</text><text style="font-style:italic;font-weight:700;font-size:240px;font-family:Times;text-anchor:start;fill:#000;stroke-width:.025in" id="text470" x="7405.423" y="3295.819" font-size="240" font-style="italic" font-weight="bold" xml:space="preserve">|</text><text style="font-style:normal;font-variant:normal;font-weight:700;font-stretch:normal;font-size:200.22875977px;font-family:serif;-inkscape-font-specification:'serif Bold';text-anchor:start;fill:#000;stroke-width:.025in" id="text472" x="7572.306" y="4645.819" font-size="192" font-style="italic" font-weight="bold" xml:space="preserve">i</text><text style="font-style:normal;font-variant:normal;font-weight:700;font-stretch:normal;font-size:233.60021973px;font-family:serif;-inkscape-font-specification:'serif Bold';text-anchor:start;fill:#000;stroke-width:.025in" id="text474" x="8298.233" y="3977.352" font-size="240" font-style="italic" font-weight="bold" xml:space="preserve">M</text><text style="font-style:normal;font-variant:normal;font-weight:700;font-stretch:normal;font-size:200.22875977px;font-family:serif;-inkscape-font-specification:'serif Bold';text-anchor:start;fill:#000;stroke-width:.025in" id="text476" x="8869.101" y="4645.819" font-size="192" font-style="italic" font-weight="bold" xml:space="preserve">j-1</text><text style="font-style:normal;font-variant:normal;font-weight:700;font-stretch:normal;font-size:200.22875977px;font-family:serif;-inkscape-font-specification:'serif Bold';text-anchor:start;fill:#000;stroke-width:.025in" id="text478" x="9246.454" y="4645.819" font-size="192" font-style="italic" font-weight="bold" xml:space="preserve">j</text><text style="font-style:italic;font-weight:700;font-size:240px;font-family:Times;text-anchor:start;fill:#000;stroke-width:.025in" id="text480" x="2830.424" y="5245.819" font-size="240" font-style="italic" font-weight="bold" xml:space="preserve">=</text><text style="font-style:normal;font-variant:normal;font-weight:700;font-stretch:normal;font-size:200.22875977px;font-family:serif;-inkscape-font-specification:'serif Bold';text-anchor:start;fill:#000;stroke-width:.025in" id="text492" x="3270.15" y="4645.819" font-size="192" font-style="italic" font-weight="bold" xml:space="preserve">i</text><text style="font-style:normal;font-variant:normal;font-weight:700;font-stretch:normal;font-size:200.22875977px;font-family:serif;-inkscape-font-specification:'serif Bold';text-anchor:start;fill:#000;stroke-width:.025in" id="text494" x="3882.785" y="4645.819" font-size="192" font-style="italic" font-weight="bold" xml:space="preserve">u</text><text style="font-style:normal;font-variant:normal;font-weight:700;font-stretch:normal;font-size:200.22875977px;font-family:serif;-inkscape-font-specification:'serif Bold';text-anchor:start;fill:#000;stroke-width:.025in" id="text496" x="4034.769" y="4645.819" font-size="192" font-style="italic" font-weight="bold" xml:space="preserve">u+1</text><text style="font-style:normal;font-variant:normal;font-weight:700;font-stretch:normal;font-size:233.60021973px;font-family:Times;-inkscape-font-specification:'Times Bold';text-anchor:middle;fill:#000;stroke-width:.025in" id="text498" x="4490.697" y="4172.188" font-size="240" font-style="italic" font-weight="bold" xml:space="preserve"><tspan style="font-style:normal;font-variant:normal;font-weight:700;font-stretch:normal;font-family:serif;-inkscape-font-specification:'serif Bold'" id="tspan8020">C</tspan></text><text style="font-style:normal;font-variant:normal;font-weight:700;font-stretch:normal;font-size:200.22875977px;font-family:serif;-inkscape-font-specification:'serif Bold';text-anchor:start;fill:#000;stroke-width:.025in" id="text500" x="4915.894" y="4645.819" font-size="192" font-style="italic" font-weight="bold" xml:space="preserve">j</text><text style="font-style:italic;font-weight:700;font-size:240px;font-family:Times;text-anchor:middle;fill:#000;stroke-width:.025in" id="text502" x="1787.688" y="1982.944" font-size="240" font-style="italic" font-weight="bold" xml:space="preserve"><tspan style="font-style:normal;font-variant:normal;font-weight:700;font-stretch:normal;font-size:233.60021973px;font-family:serif;-inkscape-font-specification:'serif Bold'" id="tspan8292">F</tspan></text><text style="font-style:italic;font-weight:700;font-size:240px;font-family:Times;text-anchor:start;fill:#000;stroke-width:.025in" id="text522" x="2830.424" y="5245.819" font-size="240" font-style="italic" font-weight="bold" xml:space="preserve">=</text><path style="fill:none;fill-rule:evenodd;stroke:#000;stroke-width:26.69716835;stroke-linecap:butt;stroke-linejoin:miter;stroke-miterlimit:4;stroke-dasharray:26.6971677,53.3943354;stroke-dashoffset:0;stroke-opacity:1" id="path7250-9" d="m 3410.4182,3218.5107 1387.0371,0"/><path style="fill:none;fill-rule:evenodd;stroke:#000;stroke-width:26.69716835;stroke-linecap:butt;stroke-linejoin:miter;stroke-miterlimit:4;stroke-dasharray:26.6971677,53.3943354;stroke-dashoffset:0;stroke-opacity:1" id="path7250-1" d="m 3308.3033,4270.0713 693.5552,0"/><path style="fill:none;fill-rule:evenodd;stroke:#000;stroke-width:26.69716835;stroke-linecap:butt;stroke-linejoin:miter;stroke-miterlimit:4;stroke-dasharray:26.6971677,53.3943354;stroke-dashoffset:0;stroke-opacity:1" id="path7250-1-4" d="m 5583.9003,3225.7753 215.4579,0"/><text style="font-style:italic;font-weight:700;font-size:192px;font-family:Times;text-anchor:start;fill:#000;stroke-width:.025in" id="text408-9" x="5885.463" y="3536.999" font-size="192" font-style="italic" font-weight="bold" xml:space="preserve">k</text><text style="font-style:normal;font-variant:normal;font-weight:700;font-stretch:normal;font-size:200.22875977px;font-family:serif;-inkscape-font-specification:'serif Bold';text-anchor:start;fill:#000;stroke-width:.025in" id="text388-0" x="3306.738" y="2468.523" font-size="192" font-style="italic" font-weight="bold" xml:space="preserve">i</text><path style="fill:none;fill-rule:evenodd;stroke:#000;stroke-width:26.69716835;stroke-linecap:butt;stroke-linejoin:miter;stroke-miterlimit:4;stroke-dasharray:26.69716636,53.3943326;stroke-dashoffset:0;stroke-opacity:1" id="path7250-1-4-6" d="m 6785.6702,3223.8519 215.4579,0"/><text style="font-style:normal;font-variant:normal;font-weight:400;font-stretch:normal;font-size:150.17156982px;font-family:sans-serif;-inkscape-font-specification:sans-serif;text-anchor:start;fill:#000;stroke-width:.025in" id="text450-6-3-7" x="3848.502" y="2781.352" font-size="144" font-style="normal" font-weight="normal" xml:space="preserve"><tspan style="font-style:normal;font-variant:normal;font-weight:400;font-stretch:normal;font-size:150.17156982px;font-family:sans-serif;-inkscape-font-specification:sans-serif" id="tspan7615-8-8">hairpin</tspan></text><text style="font-style:normal;font-variant:normal;font-weight:400;font-stretch:normal;font-size:150.17156982px;font-family:sans-serif;-inkscape-font-specification:sans-serif;text-anchor:start;fill:#000;stroke-width:.025in" id="text450-6-3-3" x="6016.274" y="2801.9" font-size="144" font-style="normal" font-weight="normal" xml:space="preserve"><tspan style="font-style:normal;font-variant:normal;font-weight:400;font-stretch:normal;font-size:150.17156982px;font-family:sans-serif;-inkscape-font-specification:sans-serif" id="tspan7615-8-9">interior</tspan></text><text style="font-style:normal;font-variant:normal;font-weight:400;font-stretch:normal;font-size:427.1546936px;line-height:125%;font-family:Arial;-inkscape-font-specification:Arial;letter-spacing:0;word-spacing:0;fill:#000;fill-opacity:1;stroke:none;stroke-width:1px;stroke-linecap:butt;stroke-linejoin:miter;stroke-opacity:1" id="text8070" x="1698.828" y="4847.256" xml:space="preserve"><tspan id="tspan8072" x="1698.828" y="4847.256" style="font-style:normal;font-variant:normal;font-weight:700;font-stretch:normal;font-family:serif;-inkscape-font-specification:'serif Bold'"><tspan style="font-style:normal;font-variant:normal;font-weight:700;font-stretch:normal;font-size:233.60021973px;font-family:serif;-inkscape-font-specification:'serif Bold'" id="tspan8076">M</tspan><tspan style="font-style:normal;font-variant:normal;font-weight:700;font-stretch:normal;font-size:166.8572998px;font-family:serif;-inkscape-font-specification:'serif Bold';baseline-shift:super" id="tspan8074">1</tspan></tspan></text><text style="font-style:normal;font-variant:normal;font-weight:400;font-stretch:normal;font-size:427.1546936px;line-height:125%;font-family:Arial;-inkscape-font-specification:Arial;letter-spacing:0;word-spacing:0;fill:#000;fill-opacity:1;stroke:none;stroke-width:1px;stroke-linecap:butt;stroke-linejoin:miter;stroke-opacity:1" id="text8070-9" x="6560.816" y="5015.006" xml:space="preserve"><tspan id="tspan8072-2" x="6560.816" y="5015.006" style="font-style:normal;font-variant:normal;font-weight:700;font-stretch:normal;font-family:serif;-inkscape-font-specification:'serif Bold'"><tspan style="font-style:normal;font-variant:normal;font-weight:700;font-stretch:normal;font-size:233.60021973px;font-family:serif;-inkscape-font-specification:'serif Bold'" id="tspan8076-6">M</tspan><tspan style="font-style:normal;font-variant:normal;font-weight:700;font-stretch:normal;font-size:166.85728455px;font-family:serif;-inkscape-font-specification:'serif Bold';baseline-shift:super" id="tspan8074-5">1</tspan></tspan></text><text style="font-style:normal;font-variant:normal;font-weight:400;font-stretch:normal;font-size:427.1546936px;line-height:125%;font-family:Arial;-inkscape-font-specification:Arial;letter-spacing:0;word-spacing:0;fill:#000;fill-opacity:1;stroke:none;stroke-width:1px;stroke-linecap:butt;stroke-linejoin:miter;stroke-opacity:1" id="text8070-1" x="8858.43" y="3023.822" xml:space="preserve"><tspan id="tspan8072-9" x="8858.43" y="3023.822" style="font-style:normal;font-variant:normal;font-weight:700;font-stretch:normal;font-family:serif;-inkscape-font-specification:'serif Bold'"><tspan style="font-style:normal;font-variant:normal;font-weight:700;font-stretch:normal;font-size:233.60021973px;font-family:serif;-inkscape-font-specification:'serif Bold'" id="tspan8076-1">M</tspan><tspan style="font-style:normal;font-variant:normal;font-weight:700;font-stretch:normal;font-size:166.85728455px;font-family:serif;-inkscape-font-specification:'serif Bold';baseline-shift:super" id="tspan8074-21">1</tspan></tspan></text><text style="font-style:normal;font-variant:normal;font-weight:700;font-stretch:normal;font-size:233.60021973px;font-family:serif;-inkscape-font-specification:'serif Bold';text-anchor:start;fill:#000;stroke-width:.025in" id="text474-9" x="7998.353" y="3023.822" font-size="240" font-style="italic" font-weight="bold" xml:space="preserve">M</text><text style="font-style:normal;font-variant:normal;font-weight:400;font-stretch:normal;font-size:150.17156982px;font-family:sans-serif;-inkscape-font-specification:sans-serif;text-anchor:start;fill:#000;stroke-width:.025in" id="text450-6-3-3-1" x="8304.972" y="2781.954" font-size="144" font-style="normal" font-weight="normal" xml:space="preserve"><tspan style="font-style:normal;font-variant:normal;font-weight:400;font-stretch:normal;font-size:150.17156982px;font-family:sans-serif;-inkscape-font-specification:sans-serif" id="tspan7615-8-9-6">multi</tspan></text><text style="font-style:normal;font-variant:normal;font-weight:700;font-stretch:normal;font-size:233.60021973px;font-family:Times;-inkscape-font-specification:'Times Bold';text-anchor:middle;fill:#000;stroke-width:.025in" id="text444-0" x="6275.72" y="3130.65" font-size="240" font-style="italic" font-weight="bold" xml:space="preserve"><tspan style="font-style:normal;font-variant:normal;font-weight:700;font-stretch:normal;font-family:serif;-inkscape-font-specification:'serif Bold'" id="tspan8018-2">C</tspan></text><text style="font-style:normal;font-variant:normal;font-weight:700;font-stretch:normal;font-size:233.60021973px;font-family:Times;-inkscape-font-specification:'Times Bold';text-anchor:middle;fill:#000;stroke-width:.025in" id="text444-2" x="1793.414" y="3023.822" font-size="240" font-style="italic" font-weight="bold" xml:space="preserve"><tspan style="font-style:normal;font-variant:normal;font-weight:700;font-stretch:normal;font-family:serif;-inkscape-font-specification:'serif Bold'" id="tspan8018-5">C</tspan></text><text style="font-style:normal;font-variant:normal;font-weight:700;font-stretch:normal;font-size:233.60021973px;font-family:Times;-inkscape-font-specification:'Times Bold';text-anchor:middle;fill:#000;stroke-width:.025in" id="text444-5" x="5999.662" y="2070.006" font-size="240" font-style="italic" font-weight="bold" xml:space="preserve"><tspan style="font-style:normal;font-variant:normal;font-weight:700;font-stretch:normal;font-family:serif;-inkscape-font-specification:'serif Bold'" id="tspan8018-8">C</tspan></text><text style="font-style:italic;font-weight:700;font-size:240px;font-family:Times;text-anchor:middle;fill:#000;stroke-width:.025in" id="text502-0" x="4243.913" y="1982.944" font-size="240" font-style="italic" font-weight="bold" xml:space="preserve"><tspan style="font-style:normal;font-variant:normal;font-weight:700;font-stretch:normal;font-size:233.60021973px;font-family:serif;-inkscape-font-specification:'serif Bold'" id="tspan8292-1">F</tspan></text><text style="font-style:italic;font-weight:700;font-size:240px;font-family:Times;text-anchor:middle;fill:#000;stroke-width:.025in" id="text502-4" x="6880.991" y="1982.944" font-size="240" font-style="italic" font-weight="bold" xml:space="preserve"><tspan style="font-style:normal;font-variant:normal;font-weight:700;font-stretch:normal;font-size:233.60021973px;font-family:serif;-inkscape-font-specification:'serif Bold'" id="tspan8292-4">F</tspan></text><circle id="circle258-69" cx="3301.541" cy="4275.292" r="75" style="fill:#000;stroke:#000;stroke-width:6.99999952"/><circle id="circle258-6-6" cx="3928.244" cy="4275.292" r="75" style="fill:#000;stroke:#000;stroke-width:6.99999905"/></svg>